<mxfile host="Electron" agent="Mozilla/5.0 (X11; Linux x86_64) AppleWebKit/537.36 (KHTML, like Gecko) draw.io/24.7.8 Chrome/128.0.6613.36 Electron/32.0.1 Safari/537.36" version="24.7.8">
  <diagram name="PÃ¡gina-1" id="5eiaCcSJ1PvE_6ZsKGF6">
    <mxGraphModel dx="1114" dy="870" grid="1" gridSize="10" guides="1" tooltips="1" connect="1" arrows="1" fold="1" page="1" pageScale="1" pageWidth="827" pageHeight="1169" math="0" shadow="0">
      <root>
        <mxCell id="0" />
        <mxCell id="1" parent="0" />
        <mxCell id="y01SYBrgKI1at4JyKrcQ-1" value="&lt;h1&gt;Estudiante&lt;/h1&gt;" style="rounded=0;whiteSpace=wrap;html=1;fillColor=#ffff88;strokeColor=#36393d;" vertex="1" parent="1">
          <mxGeometry x="40" y="200" width="660" height="60" as="geometry" />
        </mxCell>
        <mxCell id="y01SYBrgKI1at4JyKrcQ-2" value="&lt;h1&gt;Aprender&lt;/h1&gt;" style="rounded=0;whiteSpace=wrap;html=1;fillColor=#cdeb8b;strokeColor=#36393d;" vertex="1" parent="1">
          <mxGeometry x="40" y="280" width="420" height="60" as="geometry" />
        </mxCell>
        <mxCell id="y01SYBrgKI1at4JyKrcQ-3" value="&lt;h1&gt;Ayudar&lt;/h1&gt;" style="rounded=0;whiteSpace=wrap;html=1;fillColor=#cdeb8b;strokeColor=#36393d;" vertex="1" parent="1">
          <mxGeometry x="500" y="280" width="200" height="60" as="geometry" />
        </mxCell>
        <mxCell id="y01SYBrgKI1at4JyKrcQ-4" value="&lt;h1&gt;Registrarme&lt;/h1&gt;" style="rounded=0;whiteSpace=wrap;html=1;fillColor=#cce5ff;strokeColor=#36393d;" vertex="1" parent="1">
          <mxGeometry x="40" y="360" width="200" height="60" as="geometry" />
        </mxCell>
        <mxCell id="y01SYBrgKI1at4JyKrcQ-5" value="&lt;h1&gt;Estudiar&lt;/h1&gt;" style="rounded=0;whiteSpace=wrap;html=1;fillColor=#cce5ff;strokeColor=#36393d;" vertex="1" parent="1">
          <mxGeometry x="260" y="360" width="200" height="60" as="geometry" />
        </mxCell>
        <mxCell id="y01SYBrgKI1at4JyKrcQ-6" value="&lt;h1&gt;Aportar a la comunidad&lt;/h1&gt;" style="rounded=0;whiteSpace=wrap;html=1;fillColor=#cce5ff;strokeColor=#36393d;" vertex="1" parent="1">
          <mxGeometry x="500" y="360" width="200" height="60" as="geometry" />
        </mxCell>
        <mxCell id="y01SYBrgKI1at4JyKrcQ-7" value="&lt;h1&gt;US1&lt;/h1&gt;" style="whiteSpace=wrap;html=1;aspect=fixed;fillColor=#ffcccc;strokeColor=#36393d;" vertex="1" parent="1">
          <mxGeometry x="100" y="450" width="80" height="80" as="geometry" />
        </mxCell>
        <mxCell id="y01SYBrgKI1at4JyKrcQ-8" value="&lt;h1&gt;US2&lt;/h1&gt;" style="whiteSpace=wrap;html=1;aspect=fixed;fillColor=#ffcccc;strokeColor=#36393d;" vertex="1" parent="1">
          <mxGeometry x="100" y="545" width="80" height="80" as="geometry" />
        </mxCell>
        <mxCell id="y01SYBrgKI1at4JyKrcQ-9" value="&lt;h1&gt;US3&lt;/h1&gt;" style="whiteSpace=wrap;html=1;aspect=fixed;fillColor=#ffcccc;strokeColor=#36393d;" vertex="1" parent="1">
          <mxGeometry x="320" y="450" width="80" height="80" as="geometry" />
        </mxCell>
        <mxCell id="y01SYBrgKI1at4JyKrcQ-10" value="&lt;h1&gt;US5&lt;/h1&gt;" style="whiteSpace=wrap;html=1;aspect=fixed;fillColor=#ffcccc;strokeColor=#36393d;" vertex="1" parent="1">
          <mxGeometry x="320" y="545" width="80" height="80" as="geometry" />
        </mxCell>
        <mxCell id="y01SYBrgKI1at4JyKrcQ-11" value="&lt;h1&gt;US4&lt;/h1&gt;" style="whiteSpace=wrap;html=1;aspect=fixed;fillColor=#ffcccc;strokeColor=#36393d;" vertex="1" parent="1">
          <mxGeometry x="560" y="450" width="80" height="80" as="geometry" />
        </mxCell>
        <mxCell id="y01SYBrgKI1at4JyKrcQ-12" value="&lt;h1&gt;US6&lt;/h1&gt;" style="whiteSpace=wrap;html=1;aspect=fixed;fillColor=#ffcccc;strokeColor=#36393d;" vertex="1" parent="1">
          <mxGeometry x="560" y="545" width="80" height="80" as="geometry" />
        </mxCell>
      </root>
    </mxGraphModel>
  </diagram>
</mxfile>
